<svg height="512" viewBox="0 0 64 64" width="512" xmlns="http://www.w3.org/2000/svg"><g id="Layer_12" data-name="Layer 12"><path d="m2 6h58v48h-58z" fill="#ccc"/><path d="m2 6v41h51a4 4 0 0 0 4-4v-37z" fill="#f2f2f2"/><rect fill="#fff" height="24" rx="3" width="32" x="7" y="18"/><path d="m28 40h6v6h-6z" fill="#2763bb"/><path d="m28 40v5h2a3 3 0 0 0 3-3v-2z" fill="#3079e6"/><path d="m28 20h6v6h-6z" fill="#2763bb"/><path d="m28 20v5h2a3 3 0 0 0 3-3v-2z" fill="#3079e6"/><path d="m38 20h6v6h-6z" fill="#2763bb"/><path d="m38 20v5h2a3 3 0 0 0 3-3v-2z" fill="#3079e6"/><path d="m48 20h6v6h-6z" fill="#2763bb"/><path d="m48 20v5h2a3 3 0 0 0 3-3v-2z" fill="#3079e6"/><path d="m28 30h6v6h-6z" fill="#2763bb"/><path d="m28 30v5h2a3 3 0 0 0 3-3v-2z" fill="#3079e6"/><path d="m8 40h6v6h-6z" fill="#2763bb"/><path d="m8 40v5h2a3 3 0 0 0 3-3v-2z" fill="#3079e6"/><g fill="#2763bb"><path d="m8 20h6v6h-6z"/><path d="m2 50h58v4h-58z"/><path d="m2 6h58v10h-58z"/></g><path d="m2 6v6h52a3 3 0 0 0 3-3v-3z" fill="#3079e6"/><path d="m46 2h6v10h-6z" fill="#ccc"/><circle cx="47" cy="38" fill="#686868" r="15"/><path d="m47 53a14.958 14.958 0 0 1 -4-.556v4.556h8v-4.556a14.958 14.958 0 0 1 -4 .556z" fill="#474747"/><circle cx="47" cy="38" fill="#ccc" r="11"/><path d="m47 27a10.992 10.992 0 0 0 -9.213 17h12.213a4 4 0 0 0 4-4v-10.485a10.955 10.955 0 0 0 -7-2.515z" fill="#f2f2f2"/><path d="m55 38h-2a6.006 6.006 0 0 0 -6-6v-2a8.009 8.009 0 0 1 8 8z" fill="#fff"/><path d="m47 46a8.009 8.009 0 0 1 -8-8h2a6.006 6.006 0 0 0 6 6z" fill="#fff"/><path d="m45 57h4v6h-4z" fill="#686868"/><path d="m46 2v8h2a2 2 0 0 0 2-2v-6z" fill="#f2f2f2"/><path d="m10 2h6v10h-6z" fill="#ccc"/><path d="m10 2v8h2a2 2 0 0 0 2-2v-6z" fill="#f2f2f2"/><path d="m8 20v5h2a3 3 0 0 0 3-3v-2z" fill="#3079e6"/><path d="m8 30h6v6h-6z" fill="#2763bb"/><path d="m8 30v5h2a3 3 0 0 0 3-3v-2z" fill="#3079e6"/><path d="m18 40h6v6h-6z" fill="#2763bb"/><path d="m18 40v5h2a3 3 0 0 0 3-3v-2z" fill="#3079e6"/><path d="m18 20h6v6h-6z" fill="#2763bb"/><path d="m18 20v5h2a3 3 0 0 0 3-3v-2z" fill="#3079e6"/><path d="m18 30h6v6h-6z" fill="#2763bb"/><path d="m18 30v5h2a3 3 0 0 0 3-3v-2z" fill="#3079e6"/></g></svg>