<svg id="Capa_1" enable-background="new 0 0 512 512" height="512" viewBox="0 0 512 512" width="512" xmlns="http://www.w3.org/2000/svg"><g><g><g><circle cx="256" cy="256" fill="#eaf6ff" r="151"/><path d="m256 105c-5.063 0-10.065.254-15 .741 76.352 7.53 136 71.927 136 150.259s-59.648 142.729-136 150.259c4.935.487 9.937.741 15 .741 83.395 0 151-67.605 151-151s-67.605-151-151-151z" fill="#d8ecfe"/><path d="m105 256c0 6.583.424 13.066 1.241 19.427 14.593 6.359 40.943 17.84 72.162 9.965 30.082-7.588 61.299-32.296 58.8-52.361-1.615-12.971-16.022-13.569-19.986-29.973-5.103-21.117 15.428-33.972 10.391-47.665-5.848-15.899-41.219-19.473-66.951-16.483-33.963 27.69-55.657 69.854-55.657 117.09z" fill="#aee49e"/><path d="m237.203 233.032c-1.615-12.971-16.022-13.569-19.986-29.973-5.103-21.117 15.428-33.972 10.391-47.665-5.712-15.528-39.579-19.296-65.129-16.677 16.797 1.8 31.536 6.91 35.129 16.677 5.037 13.692-15.494 26.548-10.391 47.665 3.964 16.404 18.371 17.001 19.986 29.973 2.499 20.065-28.718 44.772-58.8 52.36-2.271.573-4.512 1.032-6.729 1.409 11.005 1.781 23.422 1.948 36.729-1.409 30.082-7.588 61.299-32.296 58.8-52.36z" fill="#8bd8a5"/><path d="m256 407c35.765 0 68.619-12.443 94.489-33.224-21.67-6.109-38.817-5.582-51.553-3.318-19.6 3.485-30.531 10.484-45.931 5.404-15.611-5.15-14.278-19.264-31.36-26.289-11.979-4.926-22.521-2.241-42.129 2.513-8.613 2.088-19.669 4.719-33.106 7.787 27.518 29.023 66.438 47.127 109.59 47.127z" fill="#aee49e"/><path d="m157.194 370.182c3.555-.846 6.827-1.633 9.802-2.354 19.609-4.754 30.15-7.438 42.129-2.513 17.082 7.024 15.749 21.139 31.36 26.289 15.4 5.08 26.331-1.919 45.931-5.404 11.165-1.985 25.722-2.633 43.742 1.353 7.16-4.046 13.958-8.656 20.331-13.776-21.67-6.109-38.817-5.582-51.553-3.318-19.6 3.485-30.531 10.484-45.931 5.404-15.611-5.15-14.278-19.264-31.36-26.289-11.979-4.926-22.521-2.241-42.129 2.513-8.613 2.088-19.669 4.719-33.106 7.787 3.422 3.609 7.022 7.05 10.784 10.308z" fill="#8bd8a5"/><path d="m407 256c0-66.334-42.776-122.675-102.246-142.952-12.351 8.003-20.51 17.381-20.948 25.595-1.175 22.01 53.558 25.916 65.462 68.804 9.432 33.984-16.738 61.058-4.401 74.392 6.347 6.86 22.001 9.125 60.982-7.145.756-6.126 1.151-12.363 1.151-18.694z" fill="#aee49e"/><path d="m406.922 251.336c-1.157-59.761-42.151-118.607-101.97-138.219-.066-.023-.132-.047-.198-.07-4.025 2.608-7.595 5.364-10.607 8.176 49.156 24.904 82.853 75.902 82.853 134.777 0 10.022-.982 19.813-2.845 29.289 8.326-1.822 18.71-5.175 31.693-10.594.918-7.933 1.386-7.204 1.074-23.359z" fill="#8bd8a5"/></g><g><g><path d="m504.5 414.173c0 27.395-12.195 51.941-31.453 68.506-15.811 13.6-36.383 11.774-58.874 11.774-21.825 0-41.843 2.306-57.456-10.579-20.075-16.567-32.871-41.64-32.871-69.701 0-49.886 40.441-90.327 90.327-90.327s90.327 40.441 90.327 90.327z" fill="#eaf6ff"/><path d="m414.173 323.846c-5.111 0-10.121.431-15 1.247 42.746 7.146 75.327 44.305 75.327 89.08s-32.581 81.935-75.327 89.08c4.879.816 9.889-2.218 15-2.218 22.492 0 43.063-4.756 58.874-18.356 19.258-16.565 31.453-41.111 31.453-68.506 0-49.886-40.441-90.327-90.327-90.327z" fill="#d8ecfe"/><path d="m414.173 429.05c-30.801 0-56.092 23.551-58.872 53.626 15.811 13.6 36.381 21.823 58.872 21.823s43.061-8.223 58.872-21.823c-2.78-30.075-28.071-53.626-58.872-53.626z" fill="#aee49e"/><path d="m399.216 503.245c4.867.812 9.86 1.255 14.957 1.255 22.492 0 43.061-8.223 58.872-21.823-.888-9.611-4.084-18.549-9.015-26.272-12.916 24.368-36.654 42.119-64.814 46.84z" fill="#8bd8a5"/><path d="m414.173 441.501c-17.229 0-31.197-13.967-31.197-31.197v-11.899c0-17.229 13.967-31.197 31.197-31.197 17.229 0 31.197 13.967 31.197 31.197v11.899c0 17.23-13.968 31.197-31.197 31.197z" fill="#ffcebf"/><path d="m414.173 367.209c-5.438 0-10.549 1.394-15 3.84 9.653 5.304 16.197 15.565 16.197 27.357v11.899c0 11.792-6.544 22.053-16.197 27.357 4.451 2.446 9.562 3.84 15 3.84 17.229 0 31.197-13.967 31.197-31.197v-11.899c0-17.23-13.968-31.197-31.197-31.197z" fill="#ffb09e"/></g><g><path d="m188.154 414.173c0 27.395-12.195 51.941-31.453 68.506-15.811 13.6-36.383 11.774-58.874 11.774s-43.063 1.826-58.874-11.774c-19.258-16.565-31.453-41.111-31.453-68.506 0-49.886 40.441-90.327 90.327-90.327s90.327 40.441 90.327 90.327z" fill="#eaf6ff"/><path d="m97.827 323.846c-5.111 0-10.121.431-15 1.247 42.746 7.146 75.327 44.305 75.327 89.08s-32.581 81.935-75.327 89.08c4.879.816 9.889-1.865 15-1.865 22.492 0 43.063-5.109 58.874-18.709 19.258-16.565 31.453-41.111 31.453-68.506 0-49.886-40.441-90.327-90.327-90.327z" fill="#d8ecfe"/><path d="m97.827 429.05c-30.801 0-56.092 23.551-58.872 53.626 15.811 13.6 36.381 21.823 58.872 21.823s43.061-8.223 58.872-21.823c-2.78-30.075-28.071-53.626-58.872-53.626z" fill="#b3dafe"/><path d="m82.87 503.245c4.867.812 9.86 1.255 14.957 1.255 22.492 0 43.061-8.223 58.872-21.823-.888-9.611-4.084-18.549-9.015-26.272-12.916 24.368-36.654 42.119-64.814 46.84z" fill="#8ac9fe"/><path d="m97.827 441.501c-17.229 0-31.197-13.967-31.197-31.197v-11.899c0-17.229 13.967-31.197 31.197-31.197 17.229 0 31.197 13.967 31.197 31.197v11.899c0 17.23-13.967 31.197-31.197 31.197z" fill="#ffcebf"/><path d="m97.827 367.209c-5.438 0-10.549 1.394-15 3.84 9.653 5.304 16.197 15.565 16.197 27.357v11.899c0 11.792-6.544 22.053-16.197 27.357 4.451 2.446 9.562 3.84 15 3.84 17.229 0 31.197-13.967 31.197-31.197v-11.899c0-17.23-13.967-31.197-31.197-31.197z" fill="#ffb09e"/></g><g><path d="m504.5 97.827c0 27.395-12.195 51.941-31.453 68.506-15.811 13.6-36.383 13.845-58.874 13.845-22.492 0-43.063-.245-58.874-13.845-19.258-16.565-31.453-41.111-31.453-68.506 0-49.886 40.441-90.327 90.327-90.327s90.327 40.441 90.327 90.327z" fill="#eaf6ff"/><path d="m414.173 7.5c-5.111 0-10.121.431-15 1.247 42.746 7.146 75.327 44.305 75.327 89.08s-32.581 81.935-75.327 89.08c4.879.816 10.824-.902 15.934-.902 22.492 0 42.129-6.071 57.94-19.672 19.258-16.565 31.453-41.111 31.453-68.506 0-49.886-40.441-90.327-90.327-90.327z" fill="#d8ecfe"/><path d="m414.173 112.704c-30.801 0-56.092 23.551-58.872 53.627 15.811 13.6 36.381 21.823 58.872 21.823s43.061-8.223 58.872-21.823c-2.78-30.076-28.071-53.627-58.872-53.627z" fill="#f58a97"/><path d="m399.216 186.899c4.867.812 9.86 1.255 14.957 1.255 22.492 0 43.061-8.223 58.872-21.823-.888-9.611-4.084-18.549-9.015-26.272-12.916 24.368-36.654 42.119-64.814 46.84z" fill="#f07281"/><path d="m414.173 125.155c-17.229 0-31.197-13.967-31.197-31.197v-11.898c0-17.229 13.967-31.197 31.197-31.197 17.229 0 31.197 13.967 31.197 31.197v11.899c0 17.229-13.968 31.196-31.197 31.196z" fill="#ffcebf"/><path d="m414.173 50.863c-5.438 0-10.549 1.394-15 3.84 9.653 5.304 16.197 15.565 16.197 27.357v11.899c0 11.792-6.544 22.053-16.197 27.357 4.451 2.446 9.562 3.84 15 3.84 17.229 0 31.197-13.967 31.197-31.197v-11.899c0-17.229-13.968-31.197-31.197-31.197z" fill="#ffb09e"/></g><g><path d="m188.154 97.827c0 27.395-12.195 51.941-31.453 68.506-15.811 13.6-36.383 14.344-58.874 14.344s-43.063-.744-58.874-14.344c-19.258-16.565-31.453-41.111-31.453-68.506 0-49.886 40.441-90.327 90.327-90.327s90.327 40.441 90.327 90.327z" fill="#eaf6ff"/><path d="m97.827 7.5c-5.111 0-10.121.431-15 1.247 42.746 7.146 75.327 44.305 75.327 89.08s-32.581 81.935-75.327 89.08c4.879.816 11.747-1.924 16.858-1.924 22.492 0 41.205-5.05 57.016-18.65 19.258-16.565 31.453-41.111 31.453-68.506 0-49.886-40.441-90.327-90.327-90.327z" fill="#d8ecfe"/><path d="m97.827 112.704c-30.801 0-56.092 23.551-58.872 53.627 15.811 13.6 36.381 21.823 58.872 21.823s43.061-8.223 58.872-21.823c-2.78-30.076-28.071-53.627-58.872-53.627z" fill="#fddf80"/><path d="m82.87 186.899c4.867.812 9.86 1.255 14.957 1.255 22.492 0 43.061-8.223 58.872-21.823-.888-9.611-4.084-18.549-9.015-26.272-12.916 24.368-36.654 42.119-64.814 46.84z" fill="#f9d070"/><path d="m97.827 125.155c-17.229 0-31.197-13.967-31.197-31.197v-11.898c0-17.229 13.967-31.197 31.197-31.197 17.229 0 31.197 13.967 31.197 31.197v11.899c0 17.229-13.967 31.196-31.197 31.196z" fill="#ffcebf"/><path d="m97.827 50.863c-5.438 0-10.549 1.394-15 3.84 9.653 5.304 16.197 15.565 16.197 27.357v11.899c0 11.792-6.544 22.053-16.197 27.357 4.451 2.446 9.562 3.84 15 3.84 17.229 0 31.197-13.967 31.197-31.197v-11.899c0-17.229-13.967-31.197-31.197-31.197z" fill="#ffb09e"/></g></g></g><path d="m290.558 35.197c3.202.497 6.429 1.07 9.593 1.705 3.962.795 8.006-1.78 8.829-5.879.814-4.061-1.817-8.014-5.879-8.828-3.378-.678-6.825-1.29-10.243-1.82-4.092-.636-7.926 2.168-8.561 6.261-.636 4.093 2.167 7.927 6.261 8.561zm-38.84-2.608.231-.004c3.18-.059 6.347-.051 9.497.025 4.121.1 7.577-3.151 7.677-7.319.099-4.141-3.178-7.578-7.319-7.677-3.317-.08-6.806-.09-10.077-.028-4.257.08-7.772 3.375-7.675 7.674.093 4.14 3.525 7.391 7.666 7.329zm8.357 446.826h-.024c-3.227.06-6.467.051-9.665-.03-4.133-.055-7.581 3.173-7.683 7.313-.103 4.141 3.172 7.58 7.313 7.683 3.427.085 6.876.096 10.312.032v-.001c4.213-.049 7.579-3.521 7.437-7.75-.139-4.119-3.576-7.395-7.69-7.247zm-47.111-442.723c3.181-.62 6.412-1.178 9.602-1.655 4.097-.613 6.92-4.431 6.307-8.527s-4.426-6.92-8.528-6.307c-3.407.51-6.856 1.104-10.253 1.767-4.065.793-6.718 4.731-5.925 8.797.798 4.092 4.811 6.702 8.797 5.925zm85.909 438.649c-3.168.615-6.401 1.17-9.607 1.648-4.097.612-6.921 4.43-6.309 8.526.556 3.721 3.756 6.393 7.408 6.393 3.775 0 7.705-1.132 11.367-1.843 4.066-.789 6.723-4.726 5.933-8.792-.79-4.065-4.728-6.725-8.792-5.932zm-77.596 1.436c-3.194-.499-6.422-1.075-9.594-1.713-4.058-.817-8.014 1.813-8.832 5.873-.817 4.062 1.813 8.016 5.874 8.832 3.386.682 6.831 1.296 10.24 1.828 4.003.625 7.923-2.132 8.566-6.254.638-4.092-2.161-7.927-6.254-8.566zm264.206-247.993c4.096-.616 6.917-4.437 6.3-8.532-.514-3.417-1.11-6.865-1.771-10.248-.793-4.064-4.73-6.716-8.799-5.923-4.065.795-6.717 4.734-5.923 8.8.619 3.17 1.178 6.4 1.66 9.604.62 4.117 4.507 6.905 8.533 6.299zm8.895 33.287c.086-3.478.097-6.925.034-10.418-.077-4.26-3.399-7.779-7.663-7.689-4.237.089-7.41 3.741-7.334 7.982.059 3.251.048 6.512-.032 9.754-.103 4.141 3.17 7.58 7.312 7.684 4.12.103 7.58-3.14 7.683-7.313zm-13.463 47.161c3.961.799 8.009-1.774 8.835-5.868.682-3.379 1.298-6.825 1.833-10.241.64-4.092-2.159-7.929-6.251-8.568-4.092-.637-7.929 2.159-8.569 6.252-.5 3.199-1.078 6.426-1.716 9.591-.819 4.06 1.807 8.015 5.868 8.834zm-463.298-59.124c-.083 3.435-.092 6.804-.028 10.269l.002.113c.07 4.099 3.414 7.373 7.497 7.373 4.188 0 7.574-3.438 7.501-7.627l-.004-.183c-.057-3.193-.048-6.401.028-9.586.101-4.21-3.292-7.68-7.501-7.68-4.059.001-7.397 3.241-7.495 7.321zm396.556 66.238c-4.025 0-7.993.25-11.892.724 7.904-19.109 12.22-40.318 12.22-61.07 0-21.001-4.203-41.845-12.227-61.087 3.903.476 7.87.742 11.9.742 53.658 0 97.827-44.11 97.827-97.827 0-18.653-5.271-36.794-15.242-52.461-2.224-3.494-6.859-4.521-10.354-2.3-3.495 2.224-4.524 6.859-2.3 10.354 8.436 13.256 12.895 28.611 12.895 44.406 0 20.301-7.354 38.909-19.522 53.33-5.14-15.559-15.951-28.919-30.22-37.146 3.56-5.852 5.611-12.717 5.611-20.052v-11.899c0-21.337-17.359-38.696-38.697-38.696s-38.697 17.359-38.697 38.696v11.899c0 7.334 2.051 14.198 5.61 20.049-14.273 8.227-25.083 21.588-30.219 37.148-12.167-14.42-19.521-33.028-19.521-53.329 0-45.671 37.156-82.827 82.827-82.827 17.18 0 33.655 5.21 47.646 15.066 3.387 2.387 8.065 1.575 10.451-1.812 2.385-3.386 1.574-8.064-1.812-10.45-16.532-11.648-35.995-17.804-56.284-17.804-53.942 0-97.827 43.885-97.827 97.827 0 4.027.253 7.996.728 11.897-19.395-8.014-39.995-12.224-61.074-12.224-20.996 0-41.835 4.201-61.074 12.222.475-3.9.728-7.868.728-11.895 0-53.942-43.885-97.827-97.827-97.827s-97.827 43.885-97.827 97.827c0 53.579 44.59 97.827 97.827 97.827 4.03 0 7.997-.266 11.9-.742-8.024 19.243-12.227 40.087-12.227 61.088 0 20.857 4.328 42.066 12.222 61.07-3.9-.475-7.869-.725-11.895-.725-53.942.001-97.827 43.885-97.827 97.828 0 53.968 44.565 97.827 97.827 97.827 53.567 0 97.827-44.162 97.827-97.827 0-4.026-.25-7.994-.724-11.893 19.238 8.019 40.076 12.22 61.07 12.22s41.832-4.201 61.07-12.22c-.475 3.899-.724 7.867-.724 11.893 0 53.975 44.551 97.827 97.827 97.827 53.271 0 97.827-43.841 97.827-97.827 0-53.943-43.885-97.827-97.827-97.827zm-23.697-234.286c0-13.066 10.63-23.696 23.697-23.696s23.697 10.63 23.697 23.696v11.899c0 13.066-10.63 23.696-23.697 23.696s-23.697-10.63-23.697-23.696zm1.151 43.319c6.354 4.572 14.138 7.276 22.546 7.276 8.407 0 16.19-2.703 22.543-7.274 14.856 7.254 25.529 21.45 28.342 37.728-14.053 10.979-31.711 17.545-50.885 17.545-19.173 0-36.83-6.566-50.883-17.544 2.804-16.279 13.477-30.476 28.337-37.731zm-85.828-3.966c5.25 1.938 10.379 4.191 15.364 6.732 9.716 29.757 33.341 53.02 62.704 62.699 10.227 20.032 15.633 42.489 15.633 65.156 0 4.492-.214 8.976-.633 13.435-13.269 5.255-41.32 15.068-48.495 7.31-2.82-3.048-.981-9.75 2.254-20.433 4.181-13.809 9.385-30.993 3.868-50.871-7.435-26.788-29.77-40.022-46.078-49.685-10.41-6.169-19.4-11.496-19.122-16.715.196-3.643 4.183-10.273 14.505-17.628zm-271.277 29.744c-12.168-14.421-19.522-33.029-19.522-53.33 0-45.671 37.156-82.827 82.827-82.827s82.827 37.156 82.827 82.827c0 20.301-7.354 38.908-19.521 53.329-5.136-15.56-15.947-28.921-30.219-37.148 3.559-5.851 5.61-12.715 5.61-20.049v-11.899c0-21.337-17.359-38.696-38.697-38.696s-38.697 17.359-38.697 38.696v11.899c0 7.335 2.052 14.2 5.611 20.052-14.268 8.227-25.079 21.587-30.219 37.146zm87.002-69.097v11.899c0 13.066-10.63 23.696-23.697 23.696s-23.697-10.63-23.697-23.696v-11.899c0-13.066 10.63-23.696 23.697-23.696s23.697 10.629 23.697 23.696zm-23.697 98.594c-19.174 0-36.832-6.567-50.885-17.545 2.812-16.278 13.486-30.474 28.342-37.728 6.353 4.571 14.136 7.274 22.543 7.274 8.408 0 16.192-2.704 22.546-7.276 14.86 7.254 25.533 21.452 28.337 37.731-14.052 10.978-31.71 17.544-50.883 17.544zm0 316.346c-19.174 0-36.832-6.567-50.885-17.545 2.813-16.285 13.488-30.48 28.346-37.725 6.353 4.569 14.134 7.271 22.539 7.271s16.187-2.702 22.54-7.272c14.863 7.249 25.537 21.445 28.343 37.728-14.053 10.977-31.71 17.543-50.883 17.543zm-23.697-86.695v-11.898c0-13.066 10.63-23.697 23.697-23.697s23.697 10.631 23.697 23.697v11.898c0 13.066-10.63 23.696-23.697 23.696s-23.697-10.63-23.697-23.696zm87.003 57.197c-5.136-15.561-15.948-28.92-30.222-37.143 3.56-5.852 5.613-12.718 5.613-20.054v-11.898c0-21.338-17.359-38.697-38.697-38.697s-38.697 17.358-38.697 38.696v11.898c0 7.337 2.053 14.204 5.614 20.056-14.271 8.221-25.083 21.579-30.223 37.142-12.167-14.42-19.521-33.028-19.521-53.329 0-45.671 37.156-82.827 82.827-82.827s82.827 37.156 82.827 82.827c0 20.301-7.354 38.908-19.521 53.329zm160.024-83.635c-20.034 10.227-42.49 15.633-65.157 15.633s-45.123-5.406-65.157-15.633c-2.8-8.572-6.75-16.626-11.673-23.979 17.614-4.494 30.697-7.056 39.626-3.382 6.627 2.728 9.616 6.75 13.078 11.408 4.094 5.509 8.734 11.754 18.786 15.068 4.692 1.549 9.063 2.154 13.264 2.154 7.274 0 14.034-1.817 21.039-3.7 4.728-1.271 9.617-2.585 15.298-3.594 7.564-1.353 15.462-1.738 23.573-1.195-.985 2.362-1.877 4.77-2.677 7.22zm-23.529-20.792c-6.313 1.121-11.757 2.585-16.56 3.876-10.331 2.776-17.153 4.61-25.71 1.786-5.544-1.828-8.02-5.159-11.446-9.77-3.979-5.356-8.932-12.021-19.414-16.335-15.543-6.396-35.283-.637-55.676 4.308-11.084-11.699-25.021-20.665-40.684-25.781-5.423-10.625-9.497-21.928-12.118-33.589 10.888 4.072 24.839 7.986 40.836 7.986 4.951 0 10.403-1.753 10.221-7.768-.125-4.14-3.586-7.407-7.724-7.27-18.886.55-34.748-5.39-46.129-10.242-.473-4.737-.725-9.502-.725-14.277 0-22.667 5.406-45.124 15.632-65.156 23.142-7.622 43.189-24.043 55.058-45.28 19.818.77 34.91 5.692 37.379 12.41 1.146 3.121-.79 7.147-4.043 13.46-4.449 8.633-9.986 19.376-6.596 33.386 2.586 10.712 8.916 16.331 13.536 20.434 3.956 3.512 5.875 5.349 6.292 8.703 1.454 11.677-16.043 29.295-39.005 39.275-3.799 1.65-5.54 6.068-3.889 9.867 1.67 3.844 6.144 5.507 9.868 3.889 13.243-5.756 25.343-13.906 34.071-22.95 10.324-10.697 15.109-21.74 13.84-31.932-1.131-9.113-6.724-14.079-11.218-18.069-3.988-3.541-7.432-6.599-8.916-12.741-2.076-8.581 1.531-15.58 5.35-22.989 3.875-7.518 8.266-16.038 4.79-25.504-2.963-8.063-10.611-14.075-22.731-17.871-7.243-2.269-15.053-3.43-22.04-3.995.335-.927.655-1.862.962-2.802 20.036-10.228 42.493-15.634 65.161-15.634 10.963 0 21.873 1.277 32.489 3.737-7.553 7.215-11.786 14.775-12.172 22.007-.763 14.291 12.458 22.124 26.454 30.418 15.679 9.29 33.45 19.82 39.27 40.792 4.354 15.685.038 29.937-3.771 42.512-3.964 13.091-7.708 25.456 1.091 34.967 4.681 5.061 11.493 7.601 20.708 7.6 9.435 0 21.399-2.676 36.152-8.025-2.611 12.038-6.773 23.704-12.362 34.653-21.946 7.17-40.5 21.903-52.57 41.107-11.585-1.389-22.887-1.119-33.661.807zm116.545 133.925c-19.173 0-36.83-6.566-50.883-17.543 2.805-16.283 13.48-30.479 28.343-37.728 6.353 4.57 14.134 7.272 22.54 7.272 8.405 0 16.186-2.702 22.539-7.271 14.858 7.245 25.533 21.44 28.346 37.725-14.053 10.978-31.712 17.545-50.885 17.545zm-23.697-86.695v-11.898c0-13.066 10.63-23.697 23.697-23.697s23.697 10.631 23.697 23.697v11.898c0 13.066-10.63 23.696-23.697 23.696s-23.697-10.63-23.697-23.696zm87.003 57.197c-5.14-15.563-15.952-28.921-30.223-37.142 3.561-5.852 5.614-12.719 5.614-20.056v-11.898c0-21.338-17.359-38.697-38.697-38.697s-38.697 17.359-38.697 38.697v11.898c0 7.336 2.052 14.202 5.613 20.054-14.274 8.223-25.086 21.582-30.222 37.143-12.167-14.421-19.521-33.028-19.521-53.329 0-45.671 37.156-82.827 82.827-82.827s82.827 37.157 82.827 82.828c0 20.301-7.354 38.909-19.521 53.329zm-446.433-264.564c-4.062-.82-8.015 1.814-8.831 5.874-.679 3.377-1.293 6.823-1.825 10.242-.637 4.093 2.165 7.927 6.257 8.564 4.002.624 7.922-2.133 8.564-6.258.499-3.202 1.074-6.43 1.709-9.592.817-4.061-1.813-8.014-5.874-8.83zm-4.548 80.104c-4.096.613-6.921 4.431-6.308 8.527.51 3.413 1.104 6.862 1.763 10.251.797 4.092 4.808 6.706 8.794 5.93 4.066-.792 6.721-4.729 5.929-8.795-.618-3.175-1.174-6.406-1.652-9.604-.612-4.096-4.423-6.914-8.526-6.309z"/></g></svg>